<svg width="17" height="17" viewBox="0 0 17 17" fill="none" xmlns="http://www.w3.org/2000/svg">
<g clip-path="url(#clip0_1039_862)">
<path d="M8.20115 0.0564496C8.07498 0.0996136 7.85584 0.302153 6.80662 1.34805C6.11931 2.03204 5.54822 2.58985 5.53494 2.58985C5.52166 2.58985 5.5117 2.34746 5.5117 2.04864C5.5117 1.58047 5.50174 1.49082 5.44197 1.36133C5.35232 1.16211 5.22947 1.03594 5.03025 0.942973C4.8742 0.869926 4.82771 0.863285 4.24998 0.863285C3.70213 0.863285 3.61912 0.873246 3.48631 0.933012C3.28709 1.02266 3.16092 1.14551 3.06795 1.34473L2.98826 1.51075V3.33692V5.16309L1.59041 6.55762C0.823416 7.32461 0.156033 8.01524 0.112869 8.0916C-0.126194 8.49004 0.0431424 9.03125 0.478103 9.25371C0.634158 9.33672 0.683963 9.34336 1.17205 9.35664L1.69334 9.36992V12.7533V16.1367H1.07244C0.378494 16.1367 0.255642 16.16 0.11951 16.2994C-0.066428 16.492 -0.0166233 16.8008 0.22576 16.9402C0.318728 16.9967 0.773611 17 8.49998 17C16.2263 17 16.6812 16.9967 16.7742 16.9402C17.0166 16.8008 17.0664 16.492 16.8804 16.2994C16.7443 16.16 16.6215 16.1367 15.9308 16.1367H15.3066V12.7533V9.36992L15.8312 9.35664C16.316 9.34336 16.3658 9.33672 16.5219 9.25371C16.9568 9.03125 17.1261 8.49004 16.8871 8.0916C16.8439 8.01524 15.0377 6.18574 12.8761 4.03086C9.27029 0.428324 8.93494 0.102934 8.78552 0.0531293C8.58299 -0.013277 8.39705 -0.00995664 8.20115 0.0564496ZM12.3349 4.68164L16.1533 8.5H15.2967H14.4433V12.3184V16.1367H8.49998H2.55662V12.3184V8.5H1.7033H0.846658L4.66502 4.68164C6.76345 2.57989 8.49002 0.863285 8.49998 0.863285C8.50994 0.863285 10.2365 2.57989 12.3349 4.68164ZM4.68162 2.58321V3.46973L4.24998 3.90137L3.81834 4.33301V3.01153V1.69336H4.24998H4.68162V2.58321Z" fill="#D93C6C"/>
<path d="M5.9201 7.28802C5.35897 7.44076 4.841 7.98861 4.71815 8.5597C4.4658 9.75169 5.53162 10.8341 6.71365 10.5884C7.47401 10.4324 8.06834 9.70853 8.06834 8.94154C8.06834 8.17787 7.53709 7.47396 6.81658 7.28802C6.58084 7.22494 6.1492 7.22826 5.9201 7.28802ZM6.7867 8.19447C7.15194 8.39369 7.31463 8.85853 7.15526 9.25697C7.08553 9.42962 6.81326 9.68197 6.64725 9.72845C6.33182 9.81478 6.04627 9.75169 5.81717 9.54583C5.62127 9.36986 5.53826 9.18724 5.53826 8.93158C5.53826 8.53314 5.80057 8.19779 6.18572 8.09818C6.35174 8.05833 6.6074 8.09818 6.7867 8.19447Z" fill="#D93C6C"/>
<path d="M8.18457 10.7578L4.79785 14.1445L5.09668 14.4434L5.39551 14.7422L8.79883 11.3389L12.2021 7.93555L11.9199 7.65332C11.7672 7.49727 11.6244 7.37109 11.6045 7.37109C11.5879 7.37109 10.0473 8.89512 8.18457 10.7578Z" fill="#D93C6C"/>
<path d="M10.1701 11.538C9.60897 11.6908 9.091 12.2386 8.96815 12.8097C8.7158 14.0017 9.78162 15.0841 10.9637 14.8384C11.724 14.6824 12.3183 13.9585 12.3183 13.1915C12.3183 12.4279 11.7871 11.724 11.0666 11.538C10.8308 11.4749 10.3992 11.4783 10.1701 11.538ZM11.0367 12.4445C11.3056 12.5906 11.4617 12.8595 11.4617 13.1816C11.4617 13.4372 11.3787 13.6199 11.1828 13.7958C10.8508 14.0947 10.3992 14.0947 10.0672 13.7958C9.87127 13.6199 9.78826 13.4372 9.78826 13.1816C9.78826 12.7831 10.0506 12.4478 10.4357 12.3482C10.6017 12.3083 10.8574 12.3482 11.0367 12.4445Z" fill="#D93C6C"/>
</g>
<defs>
<clipPath id="clip0_1039_862">
<rect width="17" height="17" fill="white"/>
</clipPath>
</defs>
</svg>
