<svg width="26" height="23" viewBox="0 0 26 23" xmlns="http://www.w3.org/2000/svg">
<path fill-rule="evenodd" clip-rule="evenodd" d="M1.82407 10.0419C8.79235 7.0057 13.4392 5.00386 15.7647 4.03638C22.4046 1.2738 23.7829 0.793436 24.6828 0.779248C25.0131 0.771408 25.3375 0.868635 25.609 1.05692C25.799 1.2226 25.9204 1.45312 25.9495 1.70349C25.9979 2.01517 26.0115 2.33128 25.9901 2.64597C25.6293 6.42602 24.0727 15.5995 23.2802 19.8315C22.9458 21.6233 22.2871 22.2252 21.6466 22.284C20.2582 22.4117 19.2042 21.3659 17.8604 20.4842C15.7566 19.1059 14.5668 18.2547 12.5258 16.9007C10.1645 15.3461 11.6948 14.4908 13.0406 13.0943C13.3933 12.7275 19.5083 7.16379 19.6278 6.65911C19.6432 6.585 19.6411 6.50835 19.6217 6.43519C19.6024 6.36203 19.5663 6.29436 19.5164 6.23753C19.4437 6.19066 19.361 6.1618 19.275 6.15333C19.189 6.14487 19.1022 6.15706 19.0218 6.18888C18.811 6.23753 15.4498 8.45894 8.93829 12.8531C7.98297 13.5098 7.11885 13.8294 6.34595 13.8118C5.49063 13.7936 3.84889 13.3294 2.62874 12.9322C1.13293 12.4457 -0.0568238 12.1883 0.046545 11.3614C0.0992428 10.929 0.691747 10.4892 1.82407 10.0419Z" />
</svg>
