<svg width="25" height="25" viewBox="0 0 25 25" fill="none" xmlns="http://www.w3.org/2000/svg">
<path d="M0.467896 24.1763L2.15017 18.0309C0.847125 15.7693 0.326587 13.1411 0.669268 10.5535C1.01195 7.96603 2.1987 5.56385 4.04553 3.71944C5.89236 1.87502 8.29609 0.691408 10.884 0.352109C13.472 0.0128097 16.0996 0.536779 18.3595 1.84278C20.6193 3.14878 22.3852 5.16385 23.3834 7.57557C24.3815 9.98729 24.5561 12.6609 23.88 15.182C23.204 17.703 21.7152 19.9306 19.6444 21.5194C17.5735 23.1082 15.0364 23.9694 12.4262 23.9696C10.4469 23.9699 8.49915 23.4737 6.76123 22.5264L0.467896 24.1763ZM7.04093 20.38L7.40172 20.5928C8.92015 21.493 10.653 21.9677 12.4181 21.967C14.6028 21.9666 16.7253 21.2403 18.4522 19.9022C20.1791 18.5642 21.4124 16.6902 21.9583 14.5748C22.5041 12.4595 22.3316 10.2227 21.4678 8.21614C20.604 6.20953 19.098 4.54684 17.1863 3.4894C15.2746 2.43195 13.0658 2.03972 10.9069 2.37434C8.7481 2.70896 6.76164 3.75146 5.25979 5.33799C3.75795 6.92452 2.82588 8.96512 2.61007 11.1391C2.39426 13.313 2.90695 15.497 4.06756 17.3479L4.30267 17.7208L3.3075 21.359L7.04093 20.38Z" fill="#B1A597"/>
<path fill-rule="evenodd" clip-rule="evenodd" d="M18.391 14.9319C18.3181 14.8082 18.1194 14.7292 17.8235 14.5853C17.5276 14.4414 16.0703 13.7198 15.7967 13.6225C15.523 13.5252 15.3285 13.4725 15.1298 13.7705C14.9312 14.0684 14.3657 14.7332 14.1914 14.9319C14.0171 15.1305 13.8468 15.1548 13.5509 15.0068C12.6776 14.6573 11.8712 14.1595 11.1674 13.5354C10.5197 12.9362 9.96434 12.2442 9.51954 11.4822C9.34726 11.1863 9.50131 11.0261 9.64927 10.8741C9.79722 10.7221 9.94518 10.5275 10.0931 10.3553C10.2148 10.2053 10.3145 10.0388 10.3891 9.8607C10.4289 9.77911 10.4475 9.68883 10.4432 9.59816C10.439 9.50749 10.412 9.41934 10.3647 9.34183C10.2918 9.19387 9.69792 7.73455 9.45267 7.14068C9.20742 6.54682 8.96622 6.64208 8.78583 6.63195C8.60544 6.62181 8.41492 6.63195 8.21629 6.63195C8.06999 6.63793 7.9264 6.67332 7.79407 6.736C7.66175 6.79868 7.5434 6.88737 7.44609 6.99678C7.11097 7.31435 6.84563 7.69821 6.66696 8.12393C6.4883 8.54965 6.40023 9.0079 6.40835 9.46952C6.40835 10.9268 7.47042 12.3355 7.62445 12.5341C7.77849 12.7327 9.71413 15.7243 12.6916 17.0073C13.2433 17.2459 13.8076 17.4543 14.3819 17.6316C14.9857 17.8165 15.6244 17.8568 16.2466 17.7492C16.8162 17.664 17.9998 17.0337 18.2471 16.3304C18.4944 15.6271 18.4741 15.0555 18.391 14.9319Z" fill="#B1A597"/>
</svg>
