<svg width="20" height="11" viewBox="0 0 20 11" fill="none" xmlns="http://www.w3.org/2000/svg">
<path fill-rule="evenodd" clip-rule="evenodd" d="M9.45544 0.230782C9.52689 0.157627 9.61176 0.0995869 9.70521 0.0599854C9.79865 0.0203839 9.89883 0 10 0C10.1012 0 10.2013 0.0203839 10.2948 0.0599854C10.3882 0.0995869 10.4731 0.157627 10.5446 0.230782L19.7744 9.6573C19.9189 9.8048 20 10.0049 20 10.2135C20 10.4221 19.9189 10.6221 19.7744 10.7696C19.63 10.9171 19.4341 11 19.2299 11C19.0256 11 18.8297 10.9171 18.6853 10.7696L10 1.8977L1.31469 10.7696C1.17026 10.9171 0.974378 11 0.770128 11C0.565877 11 0.369992 10.9171 0.225565 10.7696C0.0811382 10.6221 0 10.4221 0 10.2135C0 10.0049 0.0811382 9.8048 0.225565 9.6573L9.45544 0.230782V0.230782Z" fill="#D93C6C"/>
</svg>
