<svg width="20" height="11" viewBox="0 0 20 11" fill="none" xmlns="http://www.w3.org/2000/svg">
<path fill-rule="evenodd" clip-rule="evenodd" d="M9.45544 10.7692C9.52689 10.8424 9.61176 10.9004 9.70521 10.94C9.79865 10.9796 9.89883 11 10 11C10.1012 11 10.2013 10.9796 10.2948 10.94C10.3882 10.9004 10.4731 10.8424 10.5446 10.7692L19.7744 1.3427C19.9189 1.1952 20 0.995137 20 0.786535C20 0.577933 19.9189 0.377875 19.7744 0.230371C19.63 0.0828665 19.4341 1.98389e-07 19.2299 1.98389e-07C19.0256 1.98389e-07 18.8297 0.0828665 18.6853 0.230371L10 9.1023L1.31469 0.230371C1.17026 0.0828665 0.974378 1.98389e-07 0.770128 1.98389e-07C0.565877 1.98389e-07 0.369992 0.0828665 0.225565 0.230371C0.0811382 0.377875 0 0.577933 0 0.786535C0 0.995137 0.0811382 1.1952 0.225565 1.3427L9.45544 10.7692V10.7692Z" fill="#D93C6C"/>
</svg>
